<svg width="18" height="11" viewBox="0 0 18 11" fill="none" xmlns="http://www.w3.org/2000/svg">
<path fill-rule="evenodd" clip-rule="evenodd" d="M11.577 0.556072C11.6842 0.155972 12.0955 -0.0814646 12.4956 0.0257418L17.2766 1.30683C17.4688 1.35831 17.6326 1.48401 17.732 1.65628C17.8315 1.82854 17.8585 2.03325 17.807 2.22539L16.5259 7.00648C16.4187 7.40658 16.0074 7.64401 15.6073 7.53681C15.2072 7.4296 14.9698 7.01835 15.077 6.61825L15.8865 3.59723C13.6303 4.98739 11.7541 6.7678 10.2935 8.79995C10.1651 8.97866 9.9646 9.09193 9.74524 9.10976C9.52589 9.12759 9.30977 9.04818 9.15415 8.89256L6 5.73841L1.28033 10.4581C0.987437 10.751 0.512563 10.751 0.21967 10.4581C-0.0732233 10.1652 -0.0732233 9.69031 0.21967 9.39742L5.46967 4.14742C5.76256 3.85452 6.23744 3.85452 6.53033 4.14742L9.60392 7.22101C11.1049 5.30824 12.9633 3.62834 15.1492 2.28971L12.1073 1.47463C11.7072 1.36742 11.4698 0.956172 11.577 0.556072Z" fill="#0F172A"/>
</svg>
