<svg xmlns="http://www.w3.org/2000/svg" width="648.4" height="417.59" viewBox="0 0 648.4 417.59"><defs><style>.cls-1{fill:#00bd69;}.cls-2{fill:#467082;}.cls-3{fill:#fff;}</style></defs><g id="Layer_2" data-name="Layer 2"><g id="Слой_1" data-name="Слой 1"><path class="cls-1" d="M518.72,0h-389A129.68,129.68,0,0,0,0,129.68H0A129.68,129.68,0,0,0,129.68,259.36H516.16c68.33,0,126.94-51.85,131.89-120A129.7,129.7,0,0,0,518.72,0Z"/><path class="cls-2" d="M142.21,335.33h19.5v2.17c0,6.19-1.73,11.09-5.24,14.71s-8.3,5.52-14.26,5.52-11-2-14.88-5.8-5.85-9-5.85-15.6,2-11.81,5.79-15.66,8.81-5.74,14.88-5.74a20.71,20.71,0,0,1,12.54,3.85,17.22,17.22,0,0,1,6.63,10.7l-6.85,1.11a11.41,11.41,0,0,0-4.13-7.18,12.87,12.87,0,0,0-8.24-2.57,13.3,13.3,0,0,0-10.09,4c-2.51,2.67-3.79,6.52-3.79,11.53s1.28,8.81,3.79,11.48a13.25,13.25,0,0,0,10.09,4,12.75,12.75,0,0,0,8.35-2.67c2.18-1.73,3.57-4.41,4.07-8H142.21Z"/><path class="cls-2" d="M203.86,320.67c3.84,3.85,5.79,9.09,5.79,15.72S207.76,348.2,204,352s-8.75,5.74-14.77,5.74-10.69-1.84-14.09-5.52-5.19-8.52-5.19-14.71v-3.79h32.94a13.28,13.28,0,0,0-4.13-9.47,13.58,13.58,0,0,0-9.53-3.45,14.14,14.14,0,0,0-7.85,2,9.46,9.46,0,0,0-4.18,5.63l-6.74-.61a15.72,15.72,0,0,1,6.4-9.31A20.47,20.47,0,0,1,189,314.93C195.06,314.93,200,316.83,203.86,320.67Zm-5.13,27.92c2.51-2.18,3.85-5.24,4.13-9.19H176.61a13.12,13.12,0,0,0,3.46,9c2.17,2.29,5.23,3.4,9.19,3.4A13.87,13.87,0,0,0,198.73,348.59Z"/><path class="cls-2" d="M252.2,315.49v41.68h-5.63L226,327.75v29.42h-6.63V315.49H225L245.57,345V315.49Z"/><path class="cls-2" d="M295.63,319.17A17,17,0,0,1,302,330.54l-6.91.61a11.85,11.85,0,0,0-4.23-7.63,13.19,13.19,0,0,0-8.41-2.68,12.81,12.81,0,0,0-10,4.18c-2.51,2.79-3.79,6.57-3.79,11.31s1.28,8.64,3.9,11.37a13.18,13.18,0,0,0,10,4.12,13.47,13.47,0,0,0,8.36-2.62,11.5,11.5,0,0,0,4.23-7.3l7,.62a17,17,0,0,1-6.46,11.08,20.54,20.54,0,0,1-12.88,4.13c-6.07,0-11.08-1.9-15-5.74s-5.86-9-5.86-15.66,2-11.81,5.8-15.66,8.86-5.74,15-5.74A20.31,20.31,0,0,1,295.63,319.17Z"/><path class="cls-2" d="M317.85,315.49v35.77h19.72v5.91H311.22V315.49Z"/><path class="cls-2" d="M376.83,320.67c3.84,3.85,5.79,9.09,5.79,15.72s-1.89,11.81-5.68,15.6-8.75,5.74-14.77,5.74-10.7-1.84-14.09-5.52-5.19-8.52-5.19-14.71v-3.79h32.93a13.24,13.24,0,0,0-4.12-9.47,13.6,13.6,0,0,0-9.53-3.45,14.14,14.14,0,0,0-7.85,2,9.46,9.46,0,0,0-4.18,5.63l-6.75-.61a15.78,15.78,0,0,1,6.41-9.31A20.44,20.44,0,0,1,362,314.93C368,314.93,373,316.83,376.83,320.67Zm-5.13,27.92c2.51-2.18,3.84-5.24,4.12-9.19H349.58a13.16,13.16,0,0,0,3.45,9c2.18,2.29,5.24,3.4,9.2,3.4A13.88,13.88,0,0,0,371.7,348.59Z"/><path class="cls-2" d="M424.44,357.17H417l-8.81-15.93H399v15.93h-6.63V315.49h16.83a13.38,13.38,0,0,1,9.47,3.35c2.39,2.28,3.62,5.45,3.62,9.52a13.14,13.14,0,0,1-1.89,7.36,11.45,11.45,0,0,1-5.3,4.4Zm-25.52-21.84h9.42a7.32,7.32,0,0,0,5.13-1.84,6.5,6.5,0,0,0,2-5.13,6.72,6.72,0,0,0-2-5.23,7.52,7.52,0,0,0-5.13-1.79h-9.42Z"/><path class="cls-2" d="M484.92,315.49l-17.56,41.68h-5.57l-17.5-41.68h7.14L464.58,347l13.15-31.54Z"/><path class="cls-2" d="M523.37,320.67c3.84,3.85,5.79,9.09,5.79,15.72s-1.89,11.81-5.68,15.6-8.75,5.74-14.77,5.74-10.69-1.84-14.09-5.52-5.19-8.52-5.19-14.71v-3.79h32.94a13.28,13.28,0,0,0-4.13-9.47,13.58,13.58,0,0,0-9.53-3.45,14.14,14.14,0,0,0-7.85,2,9.46,9.46,0,0,0-4.18,5.63l-6.74-.61a15.72,15.72,0,0,1,6.4-9.31,20.47,20.47,0,0,1,12.21-3.57C514.57,314.93,519.52,316.83,523.37,320.67Zm-5.13,27.92c2.51-2.18,3.85-5.24,4.13-9.19H496.12a13.12,13.12,0,0,0,3.46,9c2.17,2.29,5.23,3.4,9.19,3.4A13.87,13.87,0,0,0,518.24,348.59Z"/><path class="cls-2" d="M129.67,365.49a3.84,3.84,0,0,1,1.17,2.79,3.65,3.65,0,0,1-1.17,2.78,3.88,3.88,0,0,1-5.57,0,3.65,3.65,0,0,1-1.17-2.78,3.94,3.94,0,0,1,6.74-2.79Zm.33,10.42v41.68h-6.63V375.91Z"/><path class="cls-2" d="M158.11,375.91c6,0,10.86,1.84,14.65,5.58s5.69,8.86,5.69,15.26-1.9,11.48-5.74,15.21A20.29,20.29,0,0,1,158,417.59H141.45V375.91ZM148,381.6v30.31h10a13.26,13.26,0,0,0,10-4c2.51-2.62,3.74-6.35,3.74-11.2s-1.23-8.63-3.74-11.25a13.08,13.08,0,0,0-10-3.9Z"/><path class="cls-2" d="M232.08,375.91v41.68H225.5V390.4l-13.2,26.86H208L194.69,390.4v27.19h-6.63V375.91h5.85l16.22,31.82,16.15-31.82Z"/><path class="cls-2" d="M262.85,375.91l17.67,41.68h-7.25l-3.79-9.3H250.65l-3.85,9.3h-7.18l17.6-41.68Zm-2.73,9.7-6.91,16.77H267Z"/><path class="cls-2" d="M320.9,375.91v41.68h-5.63l-20.56-29.42v29.42h-6.63V375.91h5.58l20.61,29.48V375.91Z"/><path class="cls-2" d="M380,375.91v41.68h-5.62L353.8,388.17v29.42h-6.63V375.91h5.57l20.61,29.48V375.91Z"/><path class="cls-2" d="M410.7,375.91l17.66,41.68h-7.24l-3.79-9.3H398.49l-3.84,9.3h-7.19l17.61-41.68Zm-2.73,9.7-6.91,16.77h13.76Z"/><path class="cls-2" d="M464.72,375.91v5L443,411.68h22.18v5.91H434.58v-5l21.61-30.82H435.13v-5.85Z"/><path class="cls-2" d="M479.67,365.49a3.84,3.84,0,0,1,1.17,2.79,3.65,3.65,0,0,1-1.17,2.78,3.88,3.88,0,0,1-5.57,0,3.61,3.61,0,0,1-1.17-2.78,4,4,0,0,1,3.95-4A3.84,3.84,0,0,1,479.67,365.49Zm.33,10.42v41.68h-6.63V375.91Z"/><path class="cls-2" d="M523.54,417.59h-7.46l-8.81-15.93h-9.19v15.93h-6.63V375.91h16.83a13.4,13.4,0,0,1,9.47,3.35c2.39,2.28,3.62,5.45,3.62,9.52a13.14,13.14,0,0,1-1.89,7.36,11.49,11.49,0,0,1-5.3,4.4ZM498,395.75h9.42a7.32,7.32,0,0,0,5.13-1.84,6.5,6.5,0,0,0,2-5.13,6.72,6.72,0,0,0-2-5.23,7.52,7.52,0,0,0-5.13-1.79H498Z"/><path class="cls-2" d="M538.62,375.91v35.77h19.72v5.91H532V375.91Z"/><path class="cls-2" d="M572.48,365.49a3.84,3.84,0,0,1,1.17,2.79,3.65,3.65,0,0,1-1.17,2.78,3.88,3.88,0,0,1-5.57,0,3.65,3.65,0,0,1-1.17-2.78,3.94,3.94,0,0,1,6.74-2.79Zm.33,10.42v41.68h-6.63V375.91Z"/><path class="cls-2" d="M618.24,375.91l-15.77,24.91v16.77h-6.58V400.82l-15.82-24.91h7.69l11.42,18.33,11.37-18.33Z"/><path class="cls-2" d="M631.91,365.49a3.84,3.84,0,0,1,1.17,2.79,3.65,3.65,0,0,1-1.17,2.78,3.89,3.89,0,0,1-5.58,0,3.68,3.68,0,0,1-1.17-2.78,3.88,3.88,0,0,1,1.17-2.79,3.91,3.91,0,0,1,5.58,0Zm.33,10.42v41.68h-6.63V375.91Z"/><path class="cls-3" d="M211.52,163.4H159l-13.44,44.09H117.45L168.14,51.87h35.37L254.2,207.49h-29Zm-6.6-21.69-19.8-63.66-19.57,63.66Z"/><path class="cls-3" d="M279,195.7,351.34,74.27H274.71l3.3-22.4H386.94V63.66L314.55,185.09h77.1l-3.3,22.4H279Z"/><path class="cls-3" d="M422.3,51.87H523.68l3.3,22.4H448.71v41.27h75L527,137.7H448.71v47.39H527l-3.3,22.4H422.3Z"/></g></g></svg>